<svg width="220" height="198" viewBox="0 0 220 198" fill="none" xmlns="http://www.w3.org/2000/svg">
<path d="M119.752 0.604385C108.648 2.44325 97.1575 8.9277 88.6605 18.1221C82.9636 24.3162 82.0946 24.9937 82.0946 22.8644C82.0946 20.5417 78.0392 13.9604 74.1769 9.89554C60.5622 -4.13799 32.2709 -0.944153 15.8561 16.5736C9.19364 23.5419 6.00724 28.9618 2.72428 38.1561C-1.33113 49.9637 -0.944905 54.3189 4.46232 56.061C9.67642 57.8031 12.4766 55.8674 15.4699 48.2216C21.4564 32.7363 28.7948 25.3808 40.4783 23.1548C47.2373 21.8966 51.7755 23.4451 57.0862 28.865C63.3624 35.1559 65.4867 42.4146 66.6454 61.384C67.5144 76.7725 66.6454 136.778 65.4867 137.843C65.1004 138.23 62.7831 137.843 60.2726 136.971C45.7889 132.036 30.1466 138.81 23.7738 152.747C20.8771 159.135 20.9737 170.168 23.9669 176.169C26.7671 181.879 31.8847 187.008 37.5816 189.815C41.2507 191.654 43.5681 192.041 50.7134 192.041C58.2449 192.041 60.0795 191.654 64.2314 189.428C73.4044 184.685 80.6462 174.91 82.9636 164.264C83.5429 161.941 84.412 145.295 84.9913 127.196C86.2465 86.8379 87.5984 61.384 88.9502 54.8028C92.909 35.4462 103.82 22.9612 118.207 21.5095C128.249 20.4449 135.298 27.1229 138.774 40.9628C140.415 47.2537 140.512 53.6414 140.512 121.196C140.512 192.525 140.608 194.654 142.346 196.009C145.533 198.332 150.168 198.622 153.933 196.88C158.278 194.848 157.989 196.687 159.341 150.424C161.368 79.2889 163.01 54.5125 166.679 44.2535C172.376 27.8972 185.121 25.8647 198.157 39.124C200.571 41.5435 203.95 46.1891 205.592 49.2862C209.261 56.1578 211.095 57.4159 215.247 55.9642C221.331 53.835 221.524 50.3508 216.116 39.5111C210.806 28.865 200.474 18.2189 190.722 13.3797C184.639 10.3795 183.19 10.0891 175.755 10.0891C168.707 10.0891 167.065 10.3795 164.072 12.4119C162.237 13.6701 159.727 16.0896 158.665 17.6382L156.54 20.5417L154.416 15.8961C148.816 3.99178 135.201 -2.00876 119.752 0.604385Z" fill="#E3E8ED"/>
</svg>
